<?xml version="1.0" encoding="utf-8"?>
<!-- Generator: Adobe Illustrator 21.1.0, SVG Export Plug-In . SVG Version: 6.00 Build 0)  -->
<svg version="1.1" xmlns="http://www.w3.org/2000/svg" xmlns:xlink="http://www.w3.org/1999/xlink" x="0px" y="0px"
	 viewBox="0 0 1482.4 768" style="enable-background:new 0 0 1482.4 768;" xml:space="preserve">
<style type="text/css">
	.st0{fill:#5E79BA;}
	.st1{fill:#4DB8A5;}
	.st2{fill:#EE768F;}
	.st3{fill:none;stroke:#5B75B6;stroke-width:9;stroke-linecap:round;stroke-linejoin:round;stroke-miterlimit:10;}
</style>
<g id="Calque_1">
	<g>
		<polygon class="st1" points="211.2,238.4 160.7,267.3 165.5,278 218.1,253.6 		"/>
		<polygon class="st1" points="507.4,516.5 456.9,545.4 461.7,556.1 514.3,531.7 		"/>
		<polygon class="st1" points="71.7,437.5 21.2,466.3 26,477 78.6,452.6 		"/>
		<polygon class="st1" points="865.5,638.3 815,667.2 819.8,677.9 872.4,653.5 		"/>
		<polygon class="st1" points="1107.9,268.8 1057.3,297.6 1062.1,308.3 1114.7,283.9 		"/>
		<polygon class="st1" points="769.8,163.5 719.3,192.4 724.1,203.1 776.7,178.7 		"/>
		<polygon class="st1" points="1292.5,489 1241.9,517.9 1246.8,528.6 1299.3,504.2 		"/>
		<polygon class="st1" points="1448.3,604.8 1397.8,633.7 1402.6,644.3 1455.2,619.9 		"/>
		<polygon class="st1" points="1419.6,177.3 1369.1,206.2 1373.9,216.8 1426.5,192.4 		"/>
		<polygon class="st1" points="114.7,669.6 64.1,698.4 68.9,709.1 121.5,684.7 		"/>
	</g>
</g>
<g id="Calque_2">
</g>
</svg>
