<?xml version="1.0" encoding="utf-8"?>
<!-- Generator: Adobe Illustrator 21.1.0, SVG Export Plug-In . SVG Version: 6.00 Build 0)  -->
<svg version="1.1" xmlns="http://www.w3.org/2000/svg" xmlns:xlink="http://www.w3.org/1999/xlink" x="0px" y="0px"
	 viewBox="0 0 1482.4 768" style="enable-background:new 0 0 1482.4 768;" xml:space="preserve">
<style type="text/css">
	.st0{fill:#5E79BA;}
	.st1{fill:#4DB8A5;}
	.st2{fill:#EE768F;}
	.st3{fill:none;stroke:#5B75B6;stroke-width:9;stroke-linecap:round;stroke-linejoin:round;stroke-miterlimit:10;}
</style>
<g id="Calque_1">
	<g>
		<path class="st2" d="M357.9,376.9c-4.5,0-7.9-1.4-10.3-3.8c-2.4-2.4-3.8-5.8-3.8-10c0-4.1,1.4-7.6,3.8-10
			c2.4-2.4,5.8-3.8,10.3-3.8s7.9,1.4,10.7,3.8c2.7,2.4,4.1,5.8,4.1,10c0,4.1-1.4,7.6-4.1,10C365.8,375.9,362,376.9,357.9,376.9z"/>
		<path class="st2" d="M189,484.7c-4.5,0-7.9-1.4-10.3-3.8c-2.4-2.4-3.8-5.8-3.8-10c0-4.1,1.4-7.6,3.8-10c2.4-2.4,5.8-3.8,10.3-3.8
			c4.5,0,7.9,1.4,10.7,3.8c2.7,2.4,4.1,5.8,4.1,10c0,4.1-1.4,7.6-4.1,10C196.9,483.7,193.2,484.7,189,484.7z"/>
		<path class="st2" d="M547.8,390.7c-4.5,0-7.9-1.4-10.3-3.8c-2.4-2.4-3.8-5.8-3.8-10s1.4-7.6,3.8-10c2.4-2.4,5.8-3.8,10.3-3.8
			c4.5,0,7.9,1.4,10.7,3.8c2.8,2.4,4.1,5.8,4.1,10s-1.4,7.6-4.1,10C555.7,389.7,552,390.7,547.8,390.7z"/>
		<path class="st2" d="M662.5,105.4c-4.5,0-7.9-1.4-10.3-3.8c-2.4-2.4-3.8-5.8-3.8-10c0-4.1,1.4-7.6,3.8-10
			c2.4-2.4,5.8-3.8,10.3-3.8c4.5,0,7.9,1.4,10.7,3.8c2.7,2.4,4.1,5.8,4.1,10c0,4.1-1.4,7.6-4.1,10
			C670.4,104.4,666.7,105.4,662.5,105.4z"/>
		<path class="st2" d="M983.6,216.8c-4.5,0-7.9-1.4-10.3-3.8s-3.8-5.8-3.8-10c0-4.1,1.4-7.6,3.8-10c2.4-2.4,5.8-3.8,10.3-3.8
			c4.5,0,7.9,1.4,10.7,3.8c2.8,2.4,4.1,5.8,4.1,10c0,4.1-1.4,7.6-4.1,10C991.5,215.8,987.7,216.8,983.6,216.8z"/>
		<path class="st2" d="M20.9,569.8c-4.5,0-7.9-1.4-10.3-3.8c-2.4-2.4-3.8-5.8-3.8-10c0-4.1,1.4-7.6,3.8-10s5.8-3.8,10.3-3.8
			s7.9,1.4,10.7,3.8c2.7,2.4,4.1,5.8,4.1,10c0,4.1-1.4,7.6-4.1,10C28.8,568.8,25,569.8,20.9,569.8z"/>
		<path class="st2" d="M434.9,716.8c-4.5,0-7.9-1.4-10.3-3.8c-2.4-2.4-3.8-5.8-3.8-10c0-4.1,1.4-7.6,3.8-10
			c2.4-2.4,5.8-3.8,10.3-3.8s7.9,1.4,10.7,3.8c2.7,2.4,4.1,5.8,4.1,10c0,4.1-1.4,7.6-4.1,10C442.8,715.8,439,716.8,434.9,716.8z"/>
		<path class="st2" d="M289.7,638.3c-4.5,0-7.9-1.4-10.3-3.8c-2.4-2.4-3.8-5.8-3.8-10c0-4.1,1.4-7.6,3.8-10
			c2.4-2.4,5.8-3.8,10.3-3.8s7.9,1.4,10.7,3.8c2.7,2.4,4.1,5.8,4.1,10c0,4.1-1.4,7.6-4.1,10C297.6,637.3,293.9,638.3,289.7,638.3z"
			/>
		<path class="st2" d="M49.6,216.8c-4.5,0-7.9-1.4-10.3-3.8s-3.8-5.8-3.8-10c0-4.1,1.4-7.6,3.8-10c2.4-2.4,5.8-3.8,10.3-3.8
			s7.9,1.4,10.7,3.8c2.7,2.4,4.1,5.8,4.1,10c0,4.1-1.4,7.6-4.1,10C57.5,215.8,53.7,216.8,49.6,216.8z"/>
		<path class="st2" d="M829.1,316c-4.5,0-7.9-1.4-10.3-3.8c-2.4-2.4-3.8-5.8-3.8-10c0-4.1,1.4-7.6,3.8-10c2.4-2.4,5.8-3.8,10.3-3.8
			c4.5,0,7.9,1.4,10.7,3.8c2.8,2.4,4.1,5.8,4.1,10c0,4.1-1.4,7.6-4.1,10C837,315,833.2,316,829.1,316z"/>
		<path class="st2" d="M1042.5,536.3c-4.5,0-7.9-1.4-10.3-3.8c-2.4-2.4-3.8-5.8-3.8-10c0-4.1,1.4-7.6,3.8-10
			c2.4-2.4,5.8-3.8,10.3-3.8c4.5,0,7.9,1.4,10.7,3.8c2.8,2.4,4.1,5.8,4.1,10c0,4.1-1.4,7.6-4.1,10
			C1050.5,535.3,1046.7,536.3,1042.5,536.3z"/>
		<path class="st2" d="M1176.2,652.1c-4.5,0-7.9-1.4-10.3-3.8s-3.8-5.8-3.8-10c0-4.1,1.4-7.6,3.8-10s5.8-3.8,10.3-3.8
			c4.5,0,7.9,1.4,10.7,3.8s4.1,5.8,4.1,10c0,4.1-1.4,7.6-4.1,10C1184.1,651,1180.3,652.1,1176.2,652.1z"/>
		<path class="st2" d="M1042.5,740.3c-4.5,0-7.9-1.4-10.3-3.8c-2.4-2.4-3.8-5.8-3.8-10c0-4.1,1.4-7.6,3.8-10s5.8-3.8,10.3-3.8
			c4.5,0,7.9,1.4,10.7,3.8c2.8,2.4,4.1,5.8,4.1,10c0,4.1-1.4,7.6-4.1,10C1050.5,739.3,1046.7,740.3,1042.5,740.3z"/>
		<path class="st2" d="M1461.3,409.9c-4.5,0-7.9-1.4-10.3-3.8c-2.4-2.4-3.8-5.8-3.8-10c0-4.1,1.4-7.6,3.8-10
			c2.4-2.4,5.8-3.8,10.3-3.8s7.9,1.4,10.7,3.8c2.8,2.4,4.1,5.8,4.1,10c0,4.1-1.4,7.6-4.1,10C1469.2,408.8,1465.4,409.9,1461.3,409.9
			z"/>
		<path class="st2" d="M624.3,652.1c-4.5,0-7.9-1.4-10.3-3.8s-3.8-5.8-3.8-10c0-4.1,1.4-7.6,3.8-10s5.8-3.8,10.3-3.8
			c4.5,0,7.9,1.4,10.7,3.8c2.7,2.4,4.1,5.8,4.1,10c0,4.1-1.4,7.6-4.1,10C632.2,651,628.4,652.1,624.3,652.1z"/>
		<path class="st2" d="M1284.7,343.5c-4.5,0-7.9-1.4-10.3-3.8c-2.4-2.4-3.8-5.8-3.8-10c0-4.1,1.4-7.6,3.8-10
			c2.4-2.4,5.8-3.8,10.3-3.8c4.5,0,7.9,1.4,10.7,3.8c2.8,2.4,4.1,5.8,4.1,10c0,4.1-1.4,7.6-4.1,10
			C1292.6,342.5,1288.9,343.5,1284.7,343.5z"/>
		<path class="st2" d="M1334.9,105.4c-4.5,0-7.9-1.4-10.3-3.8c-2.4-2.4-3.8-5.8-3.8-10c0-4.1,1.4-7.6,3.8-10
			c2.4-2.4,5.8-3.8,10.3-3.8c4.5,0,7.9,1.4,10.7,3.8c2.8,2.4,4.1,5.8,4.1,10c0,4.1-1.4,7.6-4.1,10
			C1342.8,104.4,1339.1,105.4,1334.9,105.4z"/>
		<path class="st2" d="M1368.8,740.3c-4.5,0-7.9-1.4-10.3-3.8c-2.4-2.4-3.8-5.8-3.8-10c0-4.1,1.4-7.6,3.8-10s5.8-3.8,10.3-3.8
			c4.5,0,7.9,1.4,10.7,3.8c2.8,2.4,4.1,5.8,4.1,10c0,4.1-1.4,7.6-4.1,10C1376.7,739.3,1372.9,740.3,1368.8,740.3z"/>
		<path class="st2" d="M782,480.7c-4.5,0-7.9-1.4-10.3-3.8c-2.4-2.4-3.8-5.8-3.8-10c0-4.1,1.4-7.6,3.8-10s5.8-3.8,10.3-3.8
			c4.5,0,7.9,1.4,10.7,3.8c2.7,2.4,4.1,5.8,4.1,10c0,4.1-1.4,7.6-4.1,10C789.9,479.7,786.1,480.7,782,480.7z"/>
		<path class="st2" d="M485.4,197c-4.5,0-7.9-1.4-10.3-3.8c-2.4-2.4-3.8-5.8-3.8-10c0-4.1,1.4-7.6,3.8-10s5.8-3.8,10.3-3.8
			s7.9,1.4,10.7,3.8c2.4,2.7,3.8,6.2,3.8,10.3c0,4.1-1.4,7.2-3.8,9.6C493.3,196,489.9,197,485.4,197z"/>
	</g>
</g>
<g id="Calque_2">
</g>
</svg>
