<?xml version="1.0" encoding="utf-8"?>
<!-- Generator: Adobe Illustrator 21.1.0, SVG Export Plug-In . SVG Version: 6.00 Build 0)  -->
<svg version="1.1" id="Capa_1" xmlns="http://www.w3.org/2000/svg" xmlns:xlink="http://www.w3.org/1999/xlink" x="0px" y="0px"
	 viewBox="0 0 57 57" style="enable-background:new 0 0 57 57;" xml:space="preserve">
<style type="text/css">
	.st0{fill:#FFFFFF;}
</style>
<g>
	<circle class="st0" cx="26.4" cy="26.8" r="7.7"/>
	<path class="st0" d="M28.5,3.8C14.4,3.8,3,15.2,3,29.3s11.4,25.5,25.5,25.5S54,43.4,54,29.3S42.6,3.8,28.5,3.8z M40.5,41.9
		c-0.3,0.2-0.6,0.4-0.9,0.4c-0.4,0-0.7-0.1-1-0.4l-6.2-6.4c-1.8,1.2-3.8,1.9-6,1.9c-5.8,0-10.4-4.7-10.4-10.4
		c0-5.8,4.7-10.4,10.4-10.4s10.4,4.7,10.4,10.4c0,2.5-0.9,4.8-2.4,6.7l6.2,6.4C41.1,40.5,41.1,41.4,40.5,41.9z"/>
</g>
</svg>
